<svg xmlns="http://www.w3.org/2000/svg" viewBox="0 0 81.66 81.6"><g id="Capa_2" data-name="Capa 2"><g id="partners"><path d="M46.81,10.86a25.5,25.5,0,0,1,3.3,6.37,28.42,28.42,0,0,1,3,.54l.49.12.11,0,.62.17h0l.59.18.51.16c.17.06.35.11.52.18l.48.17.48.18a28.9,28.9,0,0,1,2.72,1.22l.63.33,1,.6.43.27.21.12.45.3.44.29a29.46,29.46,0,0,1,4.66,4l.48.51.38.43c.2.23.41.47.6.71l.35.43.46.6c.14.18.28.38.41.57s.27.38.4.58c.27.39.52.78.76,1.18.13.2.25.4.36.61s.24.41.35.62c.24.44.48.9.69,1.35.09.18.17.37.26.55l.24.55c.07.16.14.32.2.49a4.22,4.22,0,0,1,.18.45c.15.38.3.77.43,1.17.07.22.15.45.22.68v0c.07.22.13.44.19.66.18.63.34,1.27.48,1.91,0,.17.07.33.1.5l0,.28c0,.12,0,.25.07.38l.09.54c0,.18.05.36.07.54s0,.17,0,.25,0,.27,0,.41,0,.26,0,.38,0,.4,0,.6,0,.47,0,.71l0,.74c0,.26,0,.5,0,.76A29.29,29.29,0,0,1,46.28,75.48h-.75l-.75,0-.73,0h0l-.69-.06-.59-.06-.36,0-.51-.08h0l-.52-.09L40.87,75c-.21,0-.43-.07-.64-.12a29.05,29.05,0,0,1-3.35-.92l-.64-.23-.62-.23-.84-.35-.52-.23-.57-.26L33,72.27,32.4,72l-.66-.37-.61-.36h0c-.37-.22-.73-.46-1.09-.7l-.08-.06-.58-.4-.56-.41c-.19-.14-.38-.28-.56-.43s-.3-.23-.45-.36-.47-.39-.7-.59-.31-.27-.46-.41h0c-.18-.16-.35-.31-.51-.48l-.51-.49c-.32-.32-.64-.65-.95-1l-.48-.55c-.31-.35-.6-.71-.89-1.07l-.51-.68-.3-.4-.09-.13L22,62.57c-.12-.17-.22-.33-.33-.5s-.31-.48-.46-.72-.46-.79-.68-1.19c-.42-.78-.81-1.58-1.16-2.39l-.24-.57s0,0,0,0-.11-.29-.17-.43l-.15-.4-.15-.41c-.07-.2-.14-.4-.2-.6s-.13-.41-.19-.61a.14.14,0,0,1,0-.06c-.06-.2-.12-.4-.17-.6s-.12-.42-.18-.64q-.24-1-.42-2c0-.22-.08-.44-.11-.67s-.07-.44-.1-.66a25.71,25.71,0,0,1-6.38-3.29,35.37,35.37,0,1,0,35.89-36ZM17.17,43.46c0-.22,0-.44.07-.65s.05-.43.08-.65.06-.42.1-.64.07-.42.11-.63a23.26,23.26,0,0,1,.58-2.5c.05-.2.11-.4.17-.61h0l.15-.47.06-.2.18-.53c0-.16.11-.31.17-.46l.11-.29c.13-.34.26-.68.41-1s.33-.78.52-1.17l.27-.54a3.59,3.59,0,0,1,.17-.34c.07-.14.14-.28.22-.41a1,1,0,0,1,.08-.14q.14-.27.3-.54l.28-.48c.09-.14.17-.28.25-.42l.25-.38c.33-.52.68-1,1.06-1.53.12-.16.24-.33.37-.49l.29-.38c.3-.36.6-.73.92-1.08.12-.15.26-.29.39-.44.27-.3.56-.6.85-.89l.36-.36.57-.53.42-.39.78-.67.41-.32c.59-.47,1.2-.92,1.82-1.34l.54-.36.44-.27.33-.2c.16-.1.32-.2.49-.29l.61-.35.63-.33.63-.31,0,0c.37-.18.76-.35,1.14-.52l.87-.35.58-.22.51-.19.27-.09c.19-.06.38-.13.58-.18s.45-.14.69-.21L39,17.9l.62-.15.47-.11.21,0,.35-.07.63-.12.45-.07.48-.07q.62-.09,1.23-.15a19.65,19.65,0,0,0-4.1-5.58A35.41,35.41,0,0,0,11.58,39.37,19.85,19.85,0,0,0,17.17,43.46Z"/><path d="M51.13,21a25.81,25.81,0,0,0-4.85-.46c-.51,0-1,0-1.53.05a19.45,19.45,0,0,1,.69,5.15,19.64,19.64,0,0,1-24.76,19h0c0,.48,0,1,0,1.46a25.81,25.81,0,0,0,.47,4.92,26.59,26.59,0,0,0,4.67.42A25.79,25.79,0,0,0,51.56,25.78,26.45,26.45,0,0,0,51.13,21ZM25.78,0A25.78,25.78,0,0,0,7.38,43.84a39.56,39.56,0,0,1,1.38-8.22A19.65,19.65,0,0,1,35.57,8.74a39,39,0,0,1,8.22-1.41A25.67,25.67,0,0,0,25.78,0Z"/></g></g></svg>