<svg xmlns="http://www.w3.org/2000/svg" xmlns:xlink="http://www.w3.org/1999/xlink" viewBox="0 0 76.58 67.45"><defs><style>.cls-1{fill:url(#linear-gradient);}.cls-2{fill:url(#linear-gradient-2);}</style><linearGradient id="linear-gradient" y1="32.2" x2="41.18" y2="32.2" gradientUnits="userSpaceOnUse"><stop offset="0"/><stop offset="0.33"/><stop offset="0.52"/><stop offset="0.73"/><stop offset="1"/></linearGradient><linearGradient id="linear-gradient-2" x1="35.41" y1="35.76" x2="76.58" y2="35.76" xlink:href="#linear-gradient"/></defs><g id="Capa_2" data-name="Capa 2"><g id="partners"><path class="cls-1" d="M32.27,5.81l.27,0c.52,0,1.05,0,1.59.09a45,45,0,0,1,7,1.06V1.3A42.58,42.58,0,0,0,33.9.14C33,.07,32,0,31,0h-.85a59.85,59.85,0,0,0-14.6,1.87A59.81,59.81,0,0,0,0,8.14V64.4a63,63,0,0,1,14.77-5.73,65,65,0,0,1,12.42-1.89h.17c.7,0,1.4-.05,2.12-.06V51a68.91,68.91,0,0,0-16.11,2.13c-1.95.5-3.84,1.05-5.61,1.66l-2,.68V11.55l.86-.41a55.89,55.89,0,0,1,10.3-3.68A54.73,54.73,0,0,1,27.53,5.83h.18c.8,0,1.61-.06,2.4-.06H31Z"/><path class="cls-2" d="M46.48,11.75c-1.33,0-2.64,0-3.9-.14-1.54-.11-3.06-.29-4.54-.54-.89-.15-1.77-.33-2.63-.53V66.15a44.88,44.88,0,0,0,11.07,1.3,59.84,59.84,0,0,0,14.59-1.87,59.46,59.46,0,0,0,15.51-6.27V4.06A63.31,63.31,0,0,1,61.81,9.79,62.89,62.89,0,0,1,46.48,11.75Zm22.35,1,2-.67V55.9l-.86.41A55.37,55.37,0,0,1,59.66,60a53.76,53.76,0,0,1-13.18,1.7c-1.33,0-2.65,0-3.93-.16l-1.38-.12V16.29l1.6.1c1.17.08,2.38.11,3.7.11a68.92,68.92,0,0,0,16.74-2.13C65.11,13.89,67,13.33,68.83,12.71Z"/></g></g></svg>