<svg xmlns="http://www.w3.org/2000/svg" xmlns:xlink="http://www.w3.org/1999/xlink" viewBox="0 0 80.02 94.34"><defs><style>.cls-1{fill:url(#linear-gradient);}.cls-2{fill:url(#linear-gradient-2);}.cls-3{fill:url(#linear-gradient-3);}.cls-4{fill:url(#linear-gradient-4);}</style><linearGradient id="linear-gradient" y1="58.3" x2="79.79" y2="58.3" gradientUnits="userSpaceOnUse"><stop offset="0"/><stop offset="0.33"/><stop offset="0.52"/><stop offset="0.73"/><stop offset="1"/></linearGradient><linearGradient id="linear-gradient-2" x1="10.6" y1="53.03" x2="64.57" y2="53.03" xlink:href="#linear-gradient"/><linearGradient id="linear-gradient-3" x1="0.23" y1="36.04" x2="80.02" y2="36.04" xlink:href="#linear-gradient"/><linearGradient id="linear-gradient-4" x1="15.46" y1="41.31" x2="69.42" y2="41.31" xlink:href="#linear-gradient"/></defs><g id="Capa_2" data-name="Capa 2"><g id="partners"><path class="cls-1" d="M75.31,69.45a36.61,36.61,0,0,1-4.43,6.22l0,0-1.57,1.58A37,37,0,0,1,6.14,51.22c0-.73,0-1.47.06-2.21,0-.1,0-.2,0-.3v0c0-.07,0-.14,0-.21v0c0-.15,0-.3,0-.46l0-.39.06-.6c0-.11,0-.24,0-.37s0-.34.06-.53,0-.2,0-.3,0-.35.08-.53a3.06,3.06,0,0,0,0-.32c0-.09,0-.18,0-.27s0-.25.07-.39,0-.24.07-.37l.09-.43c.21-1,.48-2,.77-3v0c0-.12.08-.26.12-.39s.07-.22.11-.33c.21-.65.44-1.3.69-1.93,0-.09.07-.18.11-.27a1.88,1.88,0,0,1,.12-.3l.16-.4.14-.32,0-.06L9.4,36l.15-.34a38,38,0,0,1,3.36-5.78l.21-.29c.15-.2.29-.4.44-.59l.22-.29.49-.62.3-.36c.08-.11.19-.23.29-.35l.3-.35.35-.4-4.35-4.34A43.12,43.12,0,0,0,73.68,81.64a43.53,43.53,0,0,0,6.11-7.71Z"/><path class="cls-2" d="M20.13,74.21a32.28,32.28,0,0,0,23,9.53h1.24l.6,0,.48,0,.22,0h.1l.45,0,.37,0,.25,0H47l.33,0c.4,0,.79-.1,1.18-.17l.32,0h0l.25,0h0l.33-.07c.3-.06.58-.11.87-.18l.57-.13h0l.15,0,.4-.1.31-.08.25-.07.2-.06h0l.24-.07.37-.12.26-.08c.28-.09.55-.18.81-.28l.22-.07.05,0,.27-.1.37-.14.28-.11.46-.19.46-.19.41-.18.22-.1.06,0,.33-.16c.69-.32,1.36-.68,2-1l.21-.11.45-.27.74-.45,1-.69.3-.21,0,0,.23-.16,0,0,.16-.12,0,0a2.83,2.83,0,0,0,.28-.2l.31-.23.18-.15.07,0,.31-.25.31-.25,0,0,.58-.5.18-.15-4.35-4.35A26.39,26.39,0,0,1,24.55,32.48a26.7,26.7,0,0,1,8.25-5.55l-4.61-4.61a32.52,32.52,0,0,0-8.06,51.89Z"/><path class="cls-3" d="M80,43.12A43.12,43.12,0,0,0,36.9,0,43.19,43.19,0,0,0,.23,20.42l4.48,4.47a37.64,37.64,0,0,1,4.44-6.22l-.05,0,1.57-1.58A37,37,0,0,1,63.05,17,36.73,36.73,0,0,1,73.89,43.12c0,.73,0,1.48-.07,2.21,0,.1,0,.2,0,.31s0,.14,0,.22v0c0,.15,0,.31,0,.46s0,.26,0,.39,0,.4-.06.6,0,.24,0,.37,0,.34-.07.53,0,.2,0,.3-.06.35-.09.53,0,.21,0,.32a2.56,2.56,0,0,1,0,.27,2.92,2.92,0,0,1-.07.39c0,.11,0,.24-.07.37s0,.29-.09.43c-.21,1-.47,2-.77,3,0,.14-.08.28-.13.42s-.07.22-.1.33c-.22.65-.45,1.3-.69,1.93l-.11.27-.12.3c0,.13-.11.26-.16.4a2.52,2.52,0,0,0-.14.33l0,0c-.07.15-.13.3-.2.46s-.1.22-.16.33a36,36,0,0,1-3.36,5.79l-.2.29-.45.59a3.15,3.15,0,0,1-.22.29c-.16.21-.32.42-.49.62l-.29.36-.27.33,0,0c-.1.12-.2.24-.31.35s-.22.27-.34.4l4.34,4.35A42.91,42.91,0,0,0,80,43.12Z"/><path class="cls-4" d="M47.23,67.41,51.84,72A32.53,32.53,0,0,0,36.9,10.6H35.66l-.6,0-.47,0-.22,0h-.11l-.44,0-.38,0-.25,0H33l-.31,0c-.4.05-.8.1-1.18.17l-.33.06h0l-.25.05h-.05l-.32.06-.87.18-.58.14h0l-.14,0-.4.1-.32.09-.25.06-.19.06h0l-.25.07-.36.12-.27.08-.81.28-.21.07-.06,0-.26.1-.38.14-.27.11-.47.19-.45.19-.42.18-.21.1-.07,0-.33.16c-.68.32-1.36.68-2,1l-.2.11-.43.25-.47.29-.3.19c-.33.2-.67.43-1,.68l-.28.19-.06.05-.24.17,0,0-.15.11,0,0-.28.2-.3.23-.19.15-.07.05-.3.25-.34.27-.59.5-.17.15L19.81,23A26.39,26.39,0,0,1,55.48,61.86,26.93,26.93,0,0,1,47.23,67.41Z"/></g></g></svg>